# xmcd
#
# Track frame offsets:
#	150
#	22751
#	42697
#	59698
#	82651
#	100895
#	120413
#	137245
#	153828
#	175318
#	195088
#	212889
#	230128
#	247503
#	267675
#	285741
#	302210
#	318973
#
# Disc length: 4526
#
# Revision: 2
# Processed by: cddbd v1.5.1PL0 Copyright (c) Steve Scherf et al.
# Submitted via: EasyCDDAExtractor 4.6.9.1
# Normalized: r0:TSWAP
#
DISCID=f511ac12
DTITLE=вяусес лпаккамтес 8 - #1
DYEAR=1900
DGENRE=
TTITLE0=ROBBIE WILLIAMS - ETERNITY
TTITLE1=JENNIFER LOPEZ - SECRETLY
TTITLE2=SADE - KING OF SORROW
TTITLE3=RICKY MARTIN - NOBODY WANTS TO BE LONELY
TTITLE4=NELLY FURRADO - I'M LIKE A BIRD
TTITLE5=TRAIN - DROPS OF JUPITER
TTITLE6=HOOVERPHONIC - MAD ABOUT YOU
TTITLE7=I MONSTER - DREAMDAY IN BLUE
TTITLE8=NITIN SAWHNEY - SUNSET
TTITLE9=C REAL - WITH OR WITHOUT YOU
TTITLE10=DESTINY CHILD - EMOTION
TTITLE11=MACY GRAY - SWEET BABY
TTITLE12=BRITNEY SPEARS - DON'T LET ME BE THE LAST TO KNOW
TTITLE13=ANASTASIA - I ASK OF YOU
TTITLE14=EMMA BUNTON - WHAT TOOK YOU SO LONG
TTITLE15=RONAN KEATING - THE WAY YOU MAKE ME FEEL
TTITLE16=BACKSTREET BOYS - MORE THAT THAT
TTITLE17=R. KELLY - THE STORM IS OVER
EXTD=
EXTT0=
EXTT1=
EXTT2=
EXTT3=
EXTT4=
EXTT5=
EXTT6=
EXTT7=
EXTT8=
EXTT9=
EXTT10=
EXTT11=
EXTT12=
EXTT13=
EXTT14=
EXTT15=
EXTT16=
EXTT17=
PLAYORDER=
